name C:\Users\u0101727\Documents\MyRepositories\upper-imu-dc\Results\main_tracking\Case_67\kinematics.mot
datacolumns 10
datarows 33
range 2.00000000 2.32000000
endheader 
time	clav_prot	clav_elev	scapula_abduction	scapula_elevation	scapula_upward_rot	scapula_winging	plane_elv	shoulder_elv	axial_rot	
          2.00000000	        -24.88576859	          4.10534817	          9.89315329	         -4.63267634	         52.12372741	         -4.98093620	         61.35143133	         71.13104510	        -20.96317082	
          2.01000000	        -25.06891437	          4.18625287	          9.87341044	         -4.61062294	         52.51417122	         -5.04760892	         61.12978244	         71.44513937	        -20.78489451	
          2.02000000	        -25.25058507	          4.26162237	          9.85212234	         -4.59115047	         52.89759750	         -5.11189701	         60.90781679	         71.75839514	        -20.59340109	
          2.03000000	        -25.43020428	          4.33200520	          9.83021260	         -4.57388205	         53.27408031	         -5.17395574	         60.68595689	         72.07068635	        -20.39056606	
          2.04000000	        -25.60735531	          4.39767982	          9.80849255	         -4.55864531	         53.64381840	         -5.23387050	         60.46449293	         72.38180535	        -20.17858674	
          2.05000000	        -25.78178267	          4.45878996	          9.78762888	         -4.54537646	         54.00713878	         -5.29169884	         60.24362121	         72.69147720	        -19.95990088	
          2.06000000	        -25.95336304	          4.51543316	          9.76813855	         -4.53405310	         54.36445467	         -5.34749291	         60.02348873	         72.99943071	        -19.73708535	
          2.07000000	        -26.12207864	          4.56771270	          9.75041130	         -4.52465495	         54.71625084	         -5.40131331	         59.80419761	         73.30541607	        -19.51273299	
          2.08000000	        -26.28799712	          4.61576443	          9.73472746	         -4.51714275	         55.06306998	         -5.45323572	         59.58581708	         73.60919969	        -19.28931475	
          2.09000000	        -26.45125031	          4.65977797	          9.72125274	         -4.51143990	         55.40546766	         -5.50335358	         59.36845296	         73.91058549	        -19.06904055	
          2.10000000	        -26.61201810	          4.70001386	          9.71003493	         -4.50741829	         55.74397937	         -5.55178088	         59.15225876	         74.20945336	        -18.85372299	
          2.11000000	        -26.77056716	          4.73678112	          9.70107587	         -4.50492297	         56.07928153	         -5.59866079	         58.93711834	         74.50568624	        -18.64463074	
          2.12000000	        -26.92721224	          4.77044930	          9.69423046	         -4.50375298	         56.41199270	         -5.64415450	         58.72301222	         74.79925227	        -18.44245851	
          2.13000000	        -27.08229592	          4.80147843	          9.68922776	         -4.50363960	         56.74266459	         -5.68844889	         58.50998035	         75.09018202	        -18.24730953	
          2.14000000	        -27.23618127	          4.83041494	          9.68569948	         -4.50425011	         57.07179918	         -5.73175708	         58.29805455	         75.37854754	        -18.05873819	
          2.15000000	        -27.38924134	          4.85788459	          9.68319905	         -4.50519255	         57.39984701	         -5.77431637	         58.08723012	         75.66445664	        -17.87585039	
          2.16000000	        -27.54184524	          4.88457859	          9.68122665	         -4.50602501	         57.72720360	         -5.81638343	         57.87743994	         75.94804712	        -17.69743696	
          2.17000000	        -27.69434290	          4.91122945	          9.67925919	         -4.50627192	         58.05420581	         -5.85822592	         57.66853130	         76.22948109	        -17.52211297	
          2.18000000	        -27.84705153	          4.93858045	          9.67677935	         -4.50544496	         58.38112923	         -5.90011206	         57.46025162	         76.50893937	        -17.34844288	
          2.19000000	        -28.00024551	          4.96735466	          9.67329993	         -4.50306444	         58.70818718	         -5.94230016	         57.25224706	         76.78661522	        -17.17504311	
          2.20000000	        -28.15415071	          4.99822853	          9.66838098	         -4.49867792	         59.03553176	         -5.98502966	         57.04407508	         77.06270683	        -17.00066284	
          2.21000000	        -28.30894302	          5.03181230	          9.66163900	         -4.49187422	         59.36325674	         -6.02851471	         56.83523001	         77.33740842	        -16.82424731	
          2.22000000	        -28.46475054	          5.06863802	          9.65274909	         -4.48229252	         59.69140164	         -6.07294019	         56.62517602	         77.61090064	        -16.64498505	
          2.23000000	        -28.62165999	          5.10915388	          9.64143873	         -4.46962706	         60.01995666	         -6.11846043	         56.41338307	         77.88334061	        -16.46233516	
          2.24000000	        -28.77972473	          5.15371830	          9.62747216	         -4.45363225	         60.34885997	         -6.16519805	         56.19936953	         78.15486025	        -16.27602983	
          2.25000000	        -28.93897637	          5.20259605	          9.61062654	         -4.43412645	         60.67799284	         -6.21324446	         55.98274126	         78.42556626	        -16.08604835	
          2.26000000	        -29.09943804	          5.25595447	          9.59066370	         -4.41099588	         61.00717349	         -6.26266115	         55.76322249	         78.69554009	        -15.89256682	
          2.27000000	        -29.26113673	          5.31386019	          9.56730372	         -4.38419826	         61.33615085	         -6.31348174	         55.54067569	         78.96483646	        -15.69589348	
          2.28000000	        -29.42411287	          5.37627734	          9.54020538	         -4.35376524	         61.66460113	         -6.36571453	         55.31510924	         79.23347772	        -15.49640243	
          2.29000000	        -29.58842523	          5.44306831	          9.50895832	         -4.31980285	         61.99212923	         -6.41934543	         55.08667280	         79.50144361	        -15.29447805	
          2.30000000	        -29.75414973	          5.51399774	          9.47309039	         -4.28248925	         62.31827585	         -6.47434088	         54.85564171	         79.76865831	        -15.09048037	
          2.31000000	        -29.92137207	          5.58873967	          9.43209023	         -4.24206967	         62.64253090	         -6.53065031	         54.62239314	         80.03497753	        -14.88473691	
          2.32000000	        -30.09017570	          5.66688810	          9.38544252	         -4.19884857	         62.96435265	         -6.58820812	         54.38737732	         80.30017835	        -14.67756173	
